<svg width="177" height="40" viewBox="0 0 177 40" fill="none" xmlns="http://www.w3.org/2000/svg">
<path fill-rule="evenodd" clip-rule="evenodd" d="M164.681 10.5032C164.6 10.5032 164.522 10.4706 164.465 10.4135L164.473 10.4114L160.02 6.01291C159.512 7.18136 159.231 8.47012 159.231 9.82413V17.783H160.487L162.587 15.4482C162.646 15.3829 162.728 15.3462 162.816 15.3462H165.169C165.303 14.8711 165.736 14.5224 166.252 14.5224C166.874 14.5224 167.381 15.0281 167.381 15.6521C167.381 16.2761 166.876 16.7838 166.252 16.7838C165.736 16.7838 165.303 16.4331 165.169 15.96H162.952L161.313 17.781H167.188C169.382 17.781 171.403 17.0428 173.018 15.805L170.463 13.25H163.721C163.641 13.25 163.566 13.2194 163.509 13.1643L161.227 10.9803C161.048 11.0986 160.836 11.168 160.607 11.168C159.983 11.168 159.475 10.6602 159.475 10.0362C159.475 9.41222 159.985 8.90447 160.607 8.90447C161.229 8.90447 161.737 9.41222 161.737 10.0362C161.737 10.2075 161.696 10.3686 161.627 10.5134L163.843 12.6341H170.589C170.671 12.6341 170.75 12.6667 170.807 12.7238L173.495 15.4115C174.237 14.7651 174.879 14.0065 175.393 13.1602L169.698 7.53414H166.494C166.36 8.00723 165.927 8.35797 165.411 8.35797C164.787 8.35797 164.28 7.85225 164.28 7.22826C164.28 6.60427 164.787 6.09652 165.411 6.09652C165.927 6.09652 166.36 6.44726 166.494 6.92035H169.824C169.906 6.92035 169.983 6.95297 170.04 7.01007L175.703 12.6056C176.39 11.2842 176.78 9.78539 176.78 8.19279V0.233887H174.227L172.604 2.03652C172.545 2.10177 172.463 2.13848 172.375 2.13848H170.02C169.885 2.61361 169.453 2.96231 168.937 2.96231C168.315 2.96231 167.807 2.45251 167.807 1.83056C167.807 1.20861 168.313 0.700858 168.937 0.700858C169.453 0.700858 169.885 1.0516 170.02 1.52469H172.237L173.397 0.233887H168.819C166.435 0.233887 164.255 1.10665 162.577 2.54631L164.157 4.12667H170.899C170.978 4.12667 171.054 4.15726 171.111 4.21232L173.393 6.39628C173.572 6.28005 173.784 6.21071 174.013 6.21071C174.637 6.21071 175.144 6.71847 175.144 7.34246C175.144 7.96644 174.637 8.4742 174.013 8.4742C173.389 8.4742 172.881 7.96644 172.881 7.34246C172.881 7.16913 172.922 7.01007 172.991 6.86325L170.775 4.74251H164.029C163.947 4.74251 163.868 4.70988 163.811 4.65278L162.12 2.96231C161.386 3.67806 160.768 4.508 160.293 5.42767L164.808 9.88735H168.011C168.146 9.41426 168.578 9.06352 169.094 9.06352C169.718 9.06352 170.226 9.57128 170.226 10.1953C170.226 10.8193 169.718 11.327 169.094 11.327C168.578 11.327 168.146 10.9763 168.011 10.5032H164.681ZM169.395 1.83065C169.395 1.87551 169.405 1.9163 169.422 1.953C169.365 2.17731 169.171 2.34656 168.93 2.34656C168.647 2.34656 168.414 2.11614 168.414 1.83065C168.414 1.54517 168.645 1.31474 168.93 1.31474C169.171 1.31474 169.365 1.48399 169.422 1.7083C169.405 1.74704 169.395 1.78783 169.395 1.83065ZM174.008 6.82459C174.292 6.82459 174.524 7.05502 174.524 7.34051C174.524 7.62599 174.292 7.85642 174.008 7.85642C173.725 7.85642 173.492 7.62395 173.492 7.34051C173.492 7.05706 173.723 6.82459 174.008 6.82459ZM169.61 10.1954C169.61 9.91193 169.378 9.67946 169.094 9.67946C168.811 9.67946 168.578 9.91193 168.578 10.1954C168.578 10.4788 168.809 10.7113 169.094 10.7113C169.38 10.7113 169.61 10.4788 169.61 10.1954ZM49.1268 34.6106C49.1268 35.8912 48.0766 36.9292 46.7736 36.9292C45.4705 36.9292 44.4265 35.8912 44.4265 34.6106V31.2949C44.4204 30.0123 45.4767 28.9784 46.7736 28.9784C48.0705 28.9784 49.1268 30.0143 49.1268 31.2949V34.6106ZM51.3597 37.6082C51.8634 37.021 52.2386 36.3337 52.4792 35.5425C52.7239 34.7575 52.8442 33.9031 52.8442 32.9895C52.8442 32.076 52.7239 31.2154 52.4792 30.4079C52.2386 29.6045 51.8613 28.9091 51.3597 28.3218C50.8519 27.7366 50.2177 27.2717 49.451 26.9352C48.6843 26.5987 47.7891 26.4295 46.7613 26.4295C45.7336 26.4295 44.8425 26.5987 44.0819 26.9352C43.3274 27.2737 42.6993 27.7366 42.2017 28.3218C41.7042 28.9091 41.333 29.6045 41.0761 30.4079C40.8253 31.2154 40.6989 32.0719 40.6989 32.9895C40.6989 33.9071 40.8253 34.7575 41.0761 35.5425C41.333 36.3337 41.7042 37.0189 42.2017 37.6082C42.6993 38.1935 43.3274 38.6523 44.0819 38.9826C44.8425 39.3109 45.7336 39.4782 46.7613 39.4782C47.7891 39.4782 48.6863 39.3109 49.451 38.9826C50.2157 38.6543 50.8499 38.1935 51.3597 37.6082ZM14.0387 31.6171C14.1182 30.7953 14.3711 30.155 14.7993 29.7003C15.2275 29.2476 15.8495 29.0192 16.6672 29.0192C17.3931 29.0192 17.958 29.2619 18.3576 29.735C18.7573 30.2142 18.9755 30.8422 19.0081 31.6171H14.0387ZM22.2708 33.3076C22.2933 33.0058 22.3055 32.702 22.3055 32.3941C22.3055 31.5539 22.1791 30.7648 21.9405 30.0286C21.6958 29.2925 21.3287 28.6583 20.8434 28.122C20.3581 27.5877 19.7688 27.1656 19.0836 26.8618C18.3923 26.5539 17.6093 26.3989 16.7181 26.3989C15.7006 26.3989 14.8095 26.5722 14.0509 26.9209C13.2862 27.2676 12.6459 27.7427 12.132 28.3402C11.6141 28.9438 11.2226 29.6473 10.9616 30.4548C10.6985 31.2664 10.568 32.129 10.568 33.0568C10.568 33.9846 10.6944 34.8574 10.9514 35.6527C11.2022 36.4459 11.5957 37.129 12.132 37.7061C12.6622 38.2771 13.3555 38.7277 14.1998 39.052C15.046 39.3762 16.0554 39.5373 17.2341 39.5373C18.845 39.5373 20.2908 39.2926 21.5693 38.8073C21.553 38.2893 21.4776 37.804 21.3471 37.3513C21.2166 36.8966 21.0616 36.5091 20.8842 36.1869C20.3581 36.3806 19.7993 36.5315 19.2223 36.6355C18.639 36.7416 18.062 36.7926 17.5093 36.7926C16.4918 36.7926 15.67 36.5723 15.0481 36.138C14.4261 35.7036 14.0835 34.9981 14.0142 34.0274H22.1831C22.2219 33.848 22.2464 33.6094 22.2749 33.3117L22.2708 33.3076ZM72.0308 27.5796C71.3456 26.7965 70.2893 26.4009 68.8436 26.4009C67.9239 26.4009 67.1633 26.6252 66.5638 27.0698C65.9643 27.5143 65.5014 28.0343 65.1751 28.6379C64.6164 27.1452 63.3419 26.4009 61.3598 26.4009C60.8969 26.4009 60.485 26.4621 60.1139 26.5865C59.7488 26.7068 59.4103 26.8638 59.1147 27.0575C58.8231 27.2533 58.5661 27.4735 58.3561 27.7121C58.144 27.9548 57.9727 28.1974 57.8422 28.4421C57.8355 28.395 57.8274 28.3444 57.8186 28.2897C57.8061 28.2117 57.7922 28.1252 57.779 28.0282C57.7566 27.8691 57.728 27.7019 57.6934 27.5306C57.6587 27.3634 57.624 27.1982 57.5792 27.0453C57.5384 26.8924 57.4996 26.7741 57.4466 26.6925C57.2121 26.6477 56.996 26.6089 56.7839 26.5865C56.5657 26.562 56.321 26.5477 56.0416 26.5477C55.7623 26.5477 55.5094 26.562 55.281 26.5865C55.0465 26.6089 54.8181 26.6456 54.5897 26.6925V39.2457C55.1831 39.3436 55.7602 39.3925 56.3373 39.3925C56.9144 39.3925 57.4976 39.3436 58.0849 39.2457V32.6673C58.0849 31.9862 58.1481 31.4356 58.2786 31.0156C58.4091 30.5955 58.5865 30.2692 58.8108 30.0327C59.0331 29.8002 59.2798 29.6412 59.5592 29.5616C59.8386 29.478 60.1179 29.4393 60.3993 29.4393C61.0743 29.4393 61.5127 29.6718 61.7411 30.1387C61.9634 30.6118 62.0715 31.2827 62.0715 32.1555V39.2437C62.6608 39.3415 63.242 39.3905 63.819 39.3905C64.3961 39.3905 64.9732 39.3415 65.5625 39.2437V32.4695C65.5625 31.8394 65.6359 31.3255 65.7746 30.9279C65.9174 30.5303 66.0948 30.2223 66.317 30.0062C66.5393 29.788 66.786 29.6391 67.0532 29.5596C67.3285 29.476 67.5956 29.4373 67.8811 29.4373C68.5499 29.4373 69.0006 29.6697 69.2167 30.1367C69.439 30.6098 69.5532 31.2807 69.5532 32.1534V39.2416C70.1405 39.3395 70.7237 39.3884 71.2947 39.3884C71.8656 39.3884 72.4549 39.3395 73.0422 39.2416V31.2542C73.0422 29.5861 72.7058 28.3626 72.0247 27.5755L72.0308 27.5796ZM6.05937 39.3395C6.37952 39.3558 6.67928 39.364 6.95661 39.364C7.23394 39.364 7.5235 39.3517 7.81918 39.3273C8.11486 39.3028 8.41054 39.2742 8.70418 39.2416V24.7961H13.1088C13.2128 24.3108 13.2577 23.801 13.2577 23.2687C13.2577 22.7651 13.2128 22.2716 13.1088 21.7822H0.682063C0.584183 22.2696 0.533203 22.763 0.533203 23.2687C0.533203 23.801 0.582143 24.3108 0.682063 24.7961H5.08668V39.2416C5.41703 39.2906 5.74126 39.3252 6.06141 39.3395H6.05937ZM32.9785 39.2416V21.4947C32.4076 21.3947 31.8244 21.3478 31.2371 21.3478C30.6498 21.3478 30.0666 21.3968 29.5119 21.4947V39.2416C30.0666 39.3395 30.6437 39.3884 31.2371 39.3884C31.8305 39.3884 32.4076 39.3395 32.9785 39.2416ZM40.342 26.6884C39.7486 26.5946 39.143 26.5437 38.519 26.5437C37.8624 26.5437 37.2119 26.5926 36.5716 26.6884L33.4231 32.6632L37.114 39.2416C37.7543 39.3395 38.3599 39.3884 38.937 39.3884C39.559 39.3884 40.2115 39.3395 40.8844 39.2416L37.0916 32.494L40.342 26.6905V26.6884ZM24.0204 21.4824V37.4288C24.0204 39.884 26.7387 39.4415 27.487 39.2437V21.4824C26.8977 21.3846 26.3165 21.3376 25.7456 21.3376C25.1746 21.3376 24.6138 21.3846 24.0204 21.4824ZM88.0836 37.9974C88.0836 38.4705 88.0368 38.8253 87.9654 39.1556H77.4636V21.9837C77.8429 21.8899 78.1957 21.841 78.7177 21.841C79.2397 21.841 79.617 21.8879 79.9718 21.9837V36.8371H87.9674C88.0388 37.1674 88.0857 37.5223 88.0857 37.9953L88.0836 37.9974ZM102.917 37.9953C102.917 37.5223 102.87 37.1674 102.798 36.8371H94.45V31.3966H101.522C101.593 31.0662 101.64 30.7114 101.64 30.2608C101.64 29.7877 101.593 29.4329 101.522 29.1025H94.45V24.2309H102.468C102.562 23.9006 102.611 23.5458 102.611 23.0727C102.611 22.5996 102.564 22.2448 102.468 21.9144H91.8724V39.1577H102.8C102.872 38.8273 102.919 38.4725 102.919 37.9994L102.917 37.9953ZM110.441 32.4875L113.304 24.2574L116.167 32.4875H110.443H110.441ZM114.911 21.9858C114.485 21.9144 113.989 21.8675 113.351 21.8675C112.713 21.8675 112.24 21.9144 111.789 21.9858L105.449 39.0863C105.827 39.1801 106.23 39.2291 106.773 39.2291C107.315 39.2291 107.743 39.1822 108.121 39.0863L109.634 34.7571H116.942L118.455 39.0863C118.881 39.1801 119.283 39.2291 119.874 39.2291C120.466 39.2291 120.868 39.1822 121.271 39.0863L114.909 21.9858H114.911ZM127.33 24.2085H130.972C133.101 24.2085 134.141 25.2485 134.141 27.2367C134.141 29.2249 133.101 30.2404 130.972 30.2404H127.33V24.2085ZM132.391 32.3448C135.087 31.9186 136.767 30.169 136.767 27.2367C136.767 23.7843 134.756 21.9144 130.972 21.9144H124.821V39.0863C125.199 39.1801 125.554 39.2291 126.076 39.2291C126.598 39.2291 126.975 39.1822 127.33 39.0863V32.4631H129.552L134.306 39.0863C134.756 39.1801 135.205 39.2291 135.843 39.2291C136.481 39.2291 136.932 39.1822 137.381 39.0863L132.391 32.3448ZM155.003 21.9858C154.648 21.892 154.294 21.843 153.796 21.843C153.299 21.843 152.921 21.8899 152.566 21.9858V32.9606C152.566 33.6872 152.601 34.6228 152.631 35.4107C152.643 35.7505 152.655 36.0629 152.662 36.3191C152.332 35.4668 151.598 34.0006 151.078 33.032L145.07 21.9858C144.55 21.892 144.031 21.843 143.272 21.843C142.513 21.843 141.993 21.8899 141.473 21.9858V39.0863C141.828 39.1801 142.183 39.2291 142.679 39.2291C143.174 39.2291 143.553 39.1822 143.908 39.0863V27.7567C143.908 26.7636 143.837 25.3912 143.79 24.5633C144.145 25.3667 144.83 26.7391 145.327 27.6853L151.618 39.0863C152.091 39.1801 152.611 39.2291 153.321 39.2291C154.031 39.2291 154.528 39.1822 155.001 39.0863V21.9858H155.003ZM166.763 15.6561C166.763 15.3727 166.53 15.1402 166.247 15.1402C165.964 15.1402 165.731 15.3706 165.731 15.6561C165.731 15.9416 165.962 16.172 166.247 16.172C166.532 16.172 166.763 15.9396 166.763 15.6561ZM165.405 7.74636C165.12 7.74636 164.89 7.51593 164.89 7.23045C164.89 6.94497 165.12 6.71454 165.405 6.71454C165.691 6.71454 165.921 6.947 165.921 7.23045C165.921 7.5139 165.689 7.74636 165.405 7.74636ZM160.085 10.0404C160.085 10.3259 160.315 10.5563 160.601 10.5563C160.884 10.5563 161.117 10.3259 161.117 10.0404C161.117 9.75492 160.884 9.52449 160.601 9.52449C160.317 9.52449 160.085 9.75492 160.085 10.0404ZM167.613 26.7391C168.99 25.9561 171.011 25.9479 173.319 26.0274C173.484 26.0336 173.617 26.1702 173.617 26.3354V34.5125C173.617 34.5981 173.58 34.6797 173.517 34.7388C173.454 34.7979 173.372 34.8265 173.282 34.8183C170.945 34.6267 168.921 34.543 167.813 35.4953C167.813 35.4953 167.809 35.4974 167.807 35.4994C167.787 35.5157 167.764 35.532 167.74 35.5422C167.736 35.5422 167.734 35.5422 167.73 35.5443C167.693 35.5606 167.652 35.5708 167.611 35.5708C167.571 35.5708 167.532 35.5606 167.493 35.5443C167.489 35.5443 167.487 35.5443 167.483 35.5422C167.458 35.532 167.436 35.5157 167.416 35.4994C167.416 35.4994 167.412 35.4974 167.409 35.4953C166.302 34.543 164.279 34.6246 161.94 34.8183C161.855 34.8245 161.769 34.7959 161.706 34.7388C161.643 34.6817 161.606 34.5981 161.606 34.5125V26.3354C161.606 26.1702 161.736 26.0336 161.904 26.0274C164.21 25.9479 166.233 25.954 167.609 26.7391H167.613ZM167.177 21.998H159.218V29.9569C159.218 35.2547 163.513 39.5492 168.81 39.5492H176.769V31.5903C176.769 26.2925 172.475 21.998 167.177 21.998ZM172.999 30.2385V29.486C170.98 29.4228 169.102 29.4534 167.92 30.1223V30.7952C169.214 30.2038 170.993 30.1753 172.999 30.2385ZM162.924 28.9291L163.545 28.2195L164.167 28.9291V26.6228C165.411 26.6615 166.515 26.8165 167.306 27.259V34.6755C166.064 33.9801 164.265 34.0189 162.226 34.18V26.633C162.461 26.6248 162.693 26.6187 162.924 26.6167V28.9291ZM173.001 33.3829C170.982 33.3197 169.104 33.3503 167.922 34.0191V34.6778C168.729 34.2251 169.771 34.0844 170.96 34.0844C171.602 34.0844 172.288 34.1272 173.001 34.1822V33.3829ZM172.999 28.1278V28.8701C170.993 28.8069 169.214 28.8354 167.92 29.4268V28.764C169.102 28.0952 170.98 28.0646 172.999 28.1278ZM167.922 31.4905V32.0145C169.217 31.4232 170.995 31.3946 173.001 31.4578V30.8542C170.982 30.791 169.104 30.8216 167.922 31.4905ZM167.922 33.3235V32.7097C169.104 32.0409 170.982 32.0103 173.001 32.0735V32.7668C170.995 32.7036 169.217 32.7322 167.922 33.3235ZM167.922 27.2611V28.0706C169.217 27.4793 170.995 27.4507 173.001 27.514V26.6351C170.987 26.5719 169.104 26.5963 167.922 27.2611ZM149.155 12.367C149.031 12.2426 149.031 12.0407 149.155 11.9184C149.279 11.794 149.479 11.794 149.604 11.9184L150.381 12.6953L151.157 11.9184C151.282 11.794 151.482 11.794 151.606 11.9184C151.73 12.0428 151.73 12.2426 151.606 12.367L150.829 13.1439L151.606 13.9209C151.73 14.0452 151.73 14.2451 151.606 14.3695C151.545 14.4306 151.463 14.4633 151.382 14.4633C151.3 14.4633 151.219 14.4327 151.157 14.3695L150.381 13.5925L149.604 14.3695C149.542 14.4306 149.461 14.4633 149.379 14.4633C149.298 14.4633 149.216 14.4327 149.155 14.3695C149.031 14.2451 149.031 14.0452 149.155 13.9209L149.932 13.1439L149.155 12.367ZM154.999 9.4367H154.997L154.997 9.43466L154.999 9.4367ZM154.997 9.4367H149.952C149.755 11.2536 148.313 12.6933 146.498 12.8911V17.7667C146.681 17.7769 146.865 17.7831 147.049 17.7831H155.007V9.82415C155.007 9.69432 155.003 9.56651 154.997 9.4367ZM143.223 13.5335C143.399 13.5335 143.541 13.3907 143.541 13.2154C143.541 13.04 143.399 12.8972 143.223 12.8972H140.391C140.216 12.8972 140.073 13.04 140.073 13.2154C140.073 13.3907 140.216 13.5335 140.391 13.5335H143.223ZM137.54 9.43676H142.187C142.385 11.2516 143.825 12.6933 145.642 12.8911V17.6812C144.944 17.5772 144.271 17.3997 143.631 17.155C140.407 16.1905 137.989 13.3703 137.618 9.93228C137.587 9.76915 137.563 9.60398 137.54 9.43676ZM151.608 6.20264C151.547 6.26382 151.465 6.29644 151.384 6.29644C151.302 6.29644 151.221 6.26586 151.16 6.20264L149.157 4.20017C149.033 4.07578 149.033 3.8739 149.157 3.75155C149.281 3.62716 149.481 3.62716 149.606 3.75155L151.608 5.75402C151.733 5.87841 151.733 6.08029 151.608 6.20264ZM149.954 8.58236H154.928C154.363 4.22668 150.878 0.78863 146.5 0.297188V5.128C148.315 5.3258 149.757 6.76749 149.954 8.58236ZM142.124 4.7058H143.223C143.398 4.7058 143.541 4.56306 143.541 4.38769C143.541 4.21232 143.398 4.06958 143.223 4.06958H142.124V2.97046C142.124 2.79509 141.981 2.65235 141.806 2.65235C141.63 2.65235 141.488 2.79509 141.488 2.97046V4.06958H140.388C140.213 4.06958 140.07 4.21232 140.07 4.38769C140.07 4.56306 140.213 4.7058 140.388 4.7058H141.488V5.80492C141.488 5.98029 141.63 6.12303 141.806 6.12303C141.981 6.12303 142.124 5.98029 142.124 5.80492V4.7058ZM145.641 5.12587C143.826 5.32367 142.385 6.76537 142.187 8.58024V8.58227H137.466C137.46 8.45177 137.456 8.3233 137.456 8.19279V0.233887H145.415C145.453 0.233887 145.49 0.235416 145.528 0.236946C145.566 0.238475 145.604 0.240004 145.641 0.240004V5.12587ZM147.486 8.10927H144.654V8.7455H147.486V8.10927ZM144.654 9.27365H147.486V9.90987H144.654V9.27365Z" fill="white"/>
</svg>
